<svg xmlns="http://www.w3.org/2000/svg" width="96" height="100" viewBox="0 0 96 100"><defs><linearGradient id="i9ynb" x1="48" x2="48" y1="20" y2="0" gradientUnits="userSpaceOnUse"><stop offset="0" stop-color="#181818" stop-opacity=".01"/><stop offset="1" stop-color="#fff" stop-opacity=".01"/></linearGradient><clipPath id="i9yna"><path d="M2 0h90l-5 10 9 9v75a6 6 0 0 1-6 6H6a6 6 0 0 1-6-6V18.857L9 10z"/></clipPath></defs><g><g><g><path fill="#f39c12" d="M2 0h90v20H2z"/></g><g><path fill="#f39c12" d="M2 0h90l-5 10 9 9v75a6 6 0 0 1-6 6H6a6 6 0 0 1-6-6V18.857L9 10z"/></g><g clip-path="url(#i9yna)"><path fill="#e67e22" d="M0 0h95l1 20H0z"/><path fill="url(#i9ynb)" d="M0 0h95l1 20H0z"/></g><g clip-path="url(#i9yna)"><path fill="#f1c40f" d="M-5 10H9v10H-5zm92 0h14v10H87z"/></g><g opacity=".3"><path d="M72.5 34a4.5 4.5 0 1 1 0 9 4.5 4.5 0 0 1 0-9zm-48 0a4.5 4.5 0 1 1 0 9 4.5 4.5 0 0 1 0-9z"/></g><g><path fill="#fff" d="M22 38.535c.135 16.17 6.27 36.266 26.688 36.266 19.702 0 26.2-20.476 26.312-36.638.02-2.89-4.98-3.05-5-.163-.094 13.679-4.08 32-21 32-17.998 0-21.887-17.455-22-31-.024-2.886-5.024-3.354-5-.465z"/></g></g></g></svg>