<svg xmlns="http://www.w3.org/2000/svg" width="100" height="100" viewBox="0 0 100 100"><defs><mask id="ck3ac" width="2" height="2" x="-1" y="-1"><path fill="#fff" d="M22 15h56v56H22z"/><path d="M73.401 45.552c2.936 2.883 4.55 6.712 4.55 10.784 0 3.984-1.557 7.704-4.382 10.476-2.761 2.71-6.433 4.201-10.337 4.201-3.995 0-7.776-1.551-10.647-4.367-1.004-.985-1.857-2.229-2.585-3.605-.73 1.376-1.582 2.62-2.586 3.605-2.87 2.816-6.65 4.367-10.646 4.367-3.904 0-7.575-1.492-10.337-4.201-2.826-2.772-4.382-6.493-4.383-10.477 0-4.073 1.616-7.902 4.55-10.782.944-.925 2.127-1.718 3.438-2.402-1.42-.728-2.592-1.551-3.55-2.519-5.883-5.944-5.958-15.48-.169-21.33 2.774-2.8 6.478-4.315 10.43-4.315 4.042 0 7.856 1.618 10.738 4.53.95.959 1.778 2.133 2.518 3.553.738-1.414 1.564-2.582 2.51-3.538 2.885-2.913 6.698-4.516 10.741-4.516 3.951 0 7.655 1.542 10.43 4.345 5.787 5.848 5.712 15.441-.169 21.385-.925.934-2.045 1.753-3.399 2.485 1.25.666 2.38 1.432 3.285 2.32zM32.137 34.693c2.926 2.875 13.844 4.327 13.867 4.305.022-.022-1.202-11.001-4.128-13.877-2.785-2.737-7.222-2.813-9.912-.17-2.689 2.643-2.612 7.004.173 9.742zM46.01 47.012c-.022-.02-10.963 1.235-13.86 3.955-2.76 2.59-2.836 6.716-.172 9.216 2.664 2.5 7.06 2.429 9.819-.161 2.898-2.72 4.236-12.99 4.213-13.01zm21.869 3.955c-2.905-2.72-13.867-3.976-13.89-3.955-.022.02 1.319 10.29 4.223 13.01 2.764 2.59 7.169 2.66 9.838.16 2.67-2.499 2.592-6.625-.171-9.215zm.172-26c-2.668-2.665-7.07-2.588-9.834.17-2.903 2.898-4.242 13.839-4.22 13.861.022.022 10.98-1.315 13.883-4.213 2.762-2.76 2.84-7.155.171-9.819z"/></mask><filter id="ck3ab" width="76" height="80" x="12" y="5" filterUnits="userSpaceOnUse"><feOffset dy="4" in="SourceGraphic" result="FeOffset1180Out"/><feGaussianBlur in="FeOffset1180Out" result="FeGaussianBlur1181Out" stdDeviation="0 0"/></filter><clipPath id="ck3aa"><path d="M6 0h88a6 6 0 0 1 6 6v88a6 6 0 0 1-6 6H6a6 6 0 0 1-6-6V6a6 6 0 0 1 6-6z"/></clipPath></defs><g><g><g><path fill="#e74c3c" d="M6 0h88a6 6 0 0 1 6 6v88a6 6 0 0 1-6 6H6a6 6 0 0 1-6-6V6a6 6 0 0 1 6-6z"/></g><g clip-path="url(#ck3aa)"><path fill="#c0392b" d="M68.495 10.848L50.207 0H74.59zM33.832 0c-.212.913-.548 1.81-1.027 2.662L21.06 23.571.443 11.343c-.154-.092-.296-.196-.443-.294V6a6 6 0 0 1 6-6zM2.658 49.795l1.956-3.48A9.711 9.711 0 0 1 18.1 42.7c4.743 2.814 6.4 8.995 3.696 13.808L10.051 77.416 0 71.453V48.22zM22.168 92.5a9.712 9.712 0 0 1 13.487-3.618l3.432 2.034 1.955-3.48A9.712 9.712 0 0 1 54.53 83.82c4.743 2.815 6.4 8.996 3.696 13.809l-1.332 2.37H21.19c-.619-2.457-.346-5.142.978-7.5zm35.32-27.808L36.872 52.464c-4.746-2.815-6.398-8.997-3.697-13.81a9.712 9.712 0 0 1 13.487-3.617l3.432 2.034 1.956-3.48a9.713 9.713 0 0 1 13.487-3.616c4.744 2.816 6.4 8.996 3.697 13.81zm26.82-24.95c-4.746-2.816-6.398-8.997-3.696-13.81a9.712 9.712 0 0 1 13.487-3.618l3.432 2.035 1.955-3.48c.16-.283.333-.554.514-.814v28.994zM73.3 93.585c-4.745-2.815-6.397-8.997-3.696-13.81a9.712 9.712 0 0 1 13.487-3.617l3.432 2.035 1.956-3.48a9.703 9.703 0 0 1 11.52-4.507V94c0 .412-.041.813-.12 1.201l-1.772 3.154A5.965 5.965 0 0 1 94 100h-9.885zM7.093 96.543A10.111 10.111 0 0 1 10.581 100H6c-2.843 0-5.21-1.982-5.83-4.636a9.717 9.717 0 0 1 6.923 1.179z"/></g><g clip-path="url(#ck3aa)"><g filter="url(#ck3ab)"><path fill="none" d="M73.401 45.552c2.936 2.883 4.55 6.712 4.55 10.784 0 3.984-1.557 7.704-4.382 10.476-2.761 2.71-6.433 4.201-10.337 4.201-3.995 0-7.776-1.551-10.647-4.367-1.004-.985-1.857-2.229-2.585-3.605-.73 1.376-1.582 2.62-2.586 3.605-2.87 2.816-6.65 4.367-10.646 4.367-3.904 0-7.575-1.492-10.337-4.201-2.826-2.772-4.382-6.493-4.383-10.477 0-4.073 1.616-7.902 4.55-10.782.944-.925 2.127-1.718 3.438-2.402-1.42-.728-2.592-1.551-3.55-2.519-5.883-5.944-5.958-15.48-.169-21.33 2.774-2.8 6.478-4.315 10.43-4.315 4.042 0 7.856 1.618 10.738 4.53.95.959 1.778 2.133 2.518 3.553.738-1.414 1.564-2.582 2.51-3.538 2.885-2.913 6.698-4.516 10.741-4.516 3.951 0 7.655 1.542 10.43 4.345 5.787 5.848 5.712 15.441-.169 21.385-.925.934-2.045 1.753-3.399 2.485 1.25.666 2.38 1.432 3.285 2.32zM32.137 34.693c2.926 2.875 13.844 4.327 13.867 4.305.022-.022-1.202-11.001-4.128-13.877-2.785-2.737-7.222-2.813-9.912-.17-2.689 2.643-2.612 7.004.173 9.742zM46.01 47.012c-.022-.02-10.963 1.235-13.86 3.955-2.76 2.59-2.836 6.716-.172 9.216 2.664 2.5 7.06 2.429 9.819-.161 2.898-2.72 4.236-12.99 4.213-13.01zm21.869 3.955c-2.905-2.72-13.867-3.976-13.89-3.955-.022.02 1.319 10.29 4.223 13.01 2.764 2.59 7.169 2.66 9.838.16 2.67-2.499 2.592-6.625-.171-9.215zm.172-26c-2.668-2.665-7.07-2.588-9.834.17-2.903 2.898-4.242 13.839-4.22 13.861.022.022 10.98-1.315 13.883-4.213 2.762-2.76 2.84-7.155.171-9.819z" mask="url(&quot;#ck3ac&quot;)"/><path fill-opacity=".15" d="M73.401 45.552c2.936 2.883 4.55 6.712 4.55 10.784 0 3.984-1.557 7.704-4.382 10.476-2.761 2.71-6.433 4.201-10.337 4.201-3.995 0-7.776-1.551-10.647-4.367-1.004-.985-1.857-2.229-2.585-3.605-.73 1.376-1.582 2.62-2.586 3.605-2.87 2.816-6.65 4.367-10.646 4.367-3.904 0-7.575-1.492-10.337-4.201-2.826-2.772-4.382-6.493-4.383-10.477 0-4.073 1.616-7.902 4.55-10.782.944-.925 2.127-1.718 3.438-2.402-1.42-.728-2.592-1.551-3.55-2.519-5.883-5.944-5.958-15.48-.169-21.33 2.774-2.8 6.478-4.315 10.43-4.315 4.042 0 7.856 1.618 10.738 4.53.95.959 1.778 2.133 2.518 3.553.738-1.414 1.564-2.582 2.51-3.538 2.885-2.913 6.698-4.516 10.741-4.516 3.951 0 7.655 1.542 10.43 4.345 5.787 5.848 5.712 15.441-.169 21.385-.925.934-2.045 1.753-3.399 2.485 1.25.666 2.38 1.432 3.285 2.32zM32.137 34.693c2.926 2.875 13.844 4.327 13.867 4.305.022-.022-1.202-11.001-4.128-13.877-2.785-2.737-7.222-2.813-9.912-.17-2.689 2.643-2.612 7.004.173 9.742zM46.01 47.012c-.022-.02-10.963 1.235-13.86 3.955-2.76 2.59-2.836 6.716-.172 9.216 2.664 2.5 7.06 2.429 9.819-.161 2.898-2.72 4.236-12.99 4.213-13.01zm21.869 3.955c-2.905-2.72-13.867-3.976-13.89-3.955-.022.02 1.319 10.29 4.223 13.01 2.764 2.59 7.169 2.66 9.838.16 2.67-2.499 2.592-6.625-.171-9.215zm.172-26c-2.668-2.665-7.07-2.588-9.834.17-2.903 2.898-4.242 13.839-4.22 13.861.022.022 10.98-1.315 13.883-4.213 2.762-2.76 2.84-7.155.171-9.819z"/></g><path fill="#fff" d="M73.401 45.552c2.936 2.883 4.55 6.712 4.55 10.784 0 3.984-1.557 7.704-4.382 10.476-2.761 2.71-6.433 4.201-10.337 4.201-3.995 0-7.776-1.551-10.647-4.367-1.004-.985-1.857-2.229-2.585-3.605-.73 1.376-1.582 2.62-2.586 3.605-2.87 2.816-6.65 4.367-10.646 4.367-3.904 0-7.575-1.492-10.337-4.201-2.826-2.772-4.382-6.493-4.383-10.477 0-4.073 1.616-7.902 4.55-10.782.944-.925 2.127-1.718 3.438-2.402-1.42-.728-2.592-1.551-3.55-2.519-5.883-5.944-5.958-15.48-.169-21.33 2.774-2.8 6.478-4.315 10.43-4.315 4.042 0 7.856 1.618 10.738 4.53.95.959 1.778 2.133 2.518 3.553.738-1.414 1.564-2.582 2.51-3.538 2.885-2.913 6.698-4.516 10.741-4.516 3.951 0 7.655 1.542 10.43 4.345 5.787 5.848 5.712 15.441-.169 21.385-.925.934-2.045 1.753-3.399 2.485 1.25.666 2.38 1.432 3.285 2.32zM32.137 34.693c2.926 2.875 13.844 4.327 13.867 4.305.022-.022-1.202-11.001-4.128-13.877-2.785-2.737-7.222-2.813-9.912-.17-2.689 2.643-2.612 7.004.173 9.742zM46.01 47.012c-.022-.02-10.963 1.235-13.86 3.955-2.76 2.59-2.836 6.716-.172 9.216 2.664 2.5 7.06 2.429 9.819-.161 2.898-2.72 4.236-12.99 4.213-13.01zm21.869 3.955c-2.905-2.72-13.867-3.976-13.89-3.955-.022.02 1.319 10.29 4.223 13.01 2.764 2.59 7.169 2.66 9.838.16 2.67-2.499 2.592-6.625-.171-9.215zm.172-26c-2.668-2.665-7.07-2.588-9.834.17-2.903 2.898-4.242 13.839-4.22 13.861.022.022 10.98-1.315 13.883-4.213 2.762-2.76 2.84-7.155.171-9.819z"/></g><g clip-path="url(#ck3aa)"><path fill="#fff" d="M100 47H54v53h-8V47H0v-8h46V0h8v39h46z"/></g><g clip-path="url(#ck3aa)" opacity=".2"><path fill="#2d0905" d="M94 100H6a6 6 0 0 1-6-6V80a6 6 0 0 0 6 6h88a6 6 0 0 0 6-6v14a6 6 0 0 1-6 6z"/></g></g></g></svg>