<svg xmlns="http://www.w3.org/2000/svg" width="100" height="100" viewBox="0 0 100 100"><defs><mask id="6jmqb" width="2" height="2" x="-1" y="-1"><path fill="#fff" d="M14 14h73v73H14z"/><path d="M50.5 14C70.658 14 87 30.343 87 50.5S70.658 87 50.5 87 14 70.658 14 50.5 30.342 14 50.5 14z"/></mask><filter id="6jmqa" width="96.5" height="96.5" x=".5" y="4" filterUnits="userSpaceOnUse"><feOffset dx="-3.5" dy="3.5" in="SourceGraphic" result="FeOffset1128Out"/><feGaussianBlur in="FeOffset1128Out" result="FeGaussianBlur1129Out" stdDeviation="0 0"/></filter><filter id="6jmqc" width="200%" height="200%" x="-50%" y="-50%"><feGaussianBlur in="SourceGraphic" result="FeGaussianBlur1139Out" stdDeviation="0 0"/></filter><mask id="6jmqd"><path fill="#fff" d="M50.5 23C65.688 23 78 35.312 78 50.5S65.688 78 50.5 78 23 65.688 23 50.5 35.312 23 50.5 23z"/></mask></defs><g><g><g><path fill="#2ecc71" d="M6 0h88a6 6 0 0 1 6 6v88a6 6 0 0 1-6 6H6a6 6 0 0 1-6-6V6a6 6 0 0 1 6-6z"/></g><g><g filter="url(#6jmqa)"><path fill="none" d="M50.5 14C70.658 14 87 30.343 87 50.5S70.658 87 50.5 87 14 70.658 14 50.5 30.342 14 50.5 14z" mask="url(&quot;#6jmqb&quot;)"/><path fill-opacity=".15" d="M50.5 14C70.658 14 87 30.343 87 50.5S70.658 87 50.5 87 14 70.658 14 50.5 30.342 14 50.5 14z"/></g><path fill="#2c3e50" d="M50.5 14C70.658 14 87 30.343 87 50.5S70.658 87 50.5 87 14 70.658 14 50.5 30.342 14 50.5 14z"/></g><g><path fill="#fff" d="M50.5 23C65.688 23 78 35.312 78 50.5S65.688 78 50.5 78 23 65.688 23 50.5 35.312 23 50.5 23z"/><path fill-opacity=".15" stroke="#000" stroke-opacity=".15" stroke-width="4" d="M21.5 80.6V53.124c.013 15.14 12.261 27.417 27.391 27.476zm0-60.2h58v60.2H49.109C64.246 80.541 76.5 68.252 76.5 53.1c0-15.188-12.312-27.5-27.5-27.5-15.18 0-27.487 12.299-27.5 27.476zm0 32.7v.024-.048.024zM49 80.6h.109-.218H49z" filter="url(#6jmqc)" mask="url(&quot;#6jmqd&quot;)"/></g><g><path fill="#2c3e50" d="M56.05 47.925c.19.333.346.678.468 1.028l14.09-.007c1.321-.001 2.391 1.045 2.39 2.335-.001 1.29-1.072 2.338-2.393 2.34l-14.372.007a5.99 5.99 0 0 1-2.371 2.555c-2.86 1.67-6.517.679-8.168-2.213a6.1 6.1 0 0 1-.01-6.03l-5.17-9.055c-.948-1.661-.559-3.686.871-4.52 1.43-.835 3.359-.164 4.308 1.498l5.161 9.038a5.966 5.966 0 0 1 5.196 3.024z"/></g><g><path fill="#e74c3c" d="M35.428 66.566c.604.603 1.6.586 2.225-.038l13.88-13.873c.624-.623.641-1.618.037-2.221s-1.6-.586-2.225.037l-13.88 13.874c-.624.623-.64 1.617-.037 2.22z"/></g></g></g></svg>